<svg width="20" height="20" viewBox="0 0 20 20" fill="none" xmlns="http://www.w3.org/2000/svg">
<g id="material-symbols:mail-outline-rounded" opacity="0.5">
<path id="Vector" d="M3.33317 16.6654C2.87484 16.6654 2.48262 16.5023 2.1565 16.1762C1.82984 15.8495 1.6665 15.457 1.6665 14.9987V4.9987C1.6665 4.54036 1.82984 4.14814 2.1565 3.82203C2.48262 3.49536 2.87484 3.33203 3.33317 3.33203H16.6665C17.1248 3.33203 17.5173 3.49536 17.844 3.82203C18.1701 4.14814 18.3332 4.54036 18.3332 4.9987V14.9987C18.3332 15.457 18.1701 15.8495 17.844 16.1762C17.5173 16.5023 17.1248 16.6654 16.6665 16.6654H3.33317ZM16.6665 6.66536L10.4373 10.5612C10.3679 10.6029 10.2948 10.634 10.2182 10.6545C10.1421 10.6756 10.0693 10.6862 9.99984 10.6862C9.93039 10.6862 9.85762 10.6756 9.7815 10.6545C9.70484 10.634 9.63178 10.6029 9.56234 10.5612L3.33317 6.66536V14.9987H16.6665V6.66536ZM9.99984 9.16536L16.6665 4.9987H3.33317L9.99984 9.16536ZM3.33317 6.8737V5.64453V5.66536V5.65453V6.8737Z" fill="white"/>
</g>
</svg>
