<svg width="22" height="22" viewBox="0 0 22 22" fill="none" xmlns="http://www.w3.org/2000/svg">
<g id="ph:phone" opacity="0.5">
<path id="Vector" d="M15.125 19.2515C8.30156 19.2515 2.75 13.6999 2.75 6.8765C2.75258 5.70608 3.18009 4.57642 3.95306 3.69755C4.72602 2.81868 5.79184 2.2504 6.95234 2.09838C7.24818 2.06558 7.54677 2.12786 7.80482 2.2762C8.06288 2.42454 8.26697 2.65123 8.3875 2.92338L10.1148 6.95385C10.2044 7.16305 10.2404 7.39133 10.2194 7.61794C10.1983 7.84456 10.1211 8.06233 9.99453 8.2515L8.56797 10.4343C9.21395 11.7453 10.2783 12.8036 11.593 13.4421L13.75 12.007C13.939 11.8796 14.1573 11.8025 14.3843 11.7829C14.6114 11.7634 14.8397 11.802 15.0477 11.8953L19.0781 13.614C19.3503 13.7345 19.577 13.9386 19.7253 14.1967C19.8736 14.4547 19.9359 14.7533 19.9031 15.0492C19.7511 16.2097 19.1828 17.2755 18.304 18.0484C17.4251 18.8214 16.2954 19.2489 15.125 19.2515ZM7.12422 3.46478C6.29488 3.57139 5.53283 3.97664 4.98076 4.60464C4.42869 5.23264 4.12445 6.04034 4.125 6.8765C4.12728 9.79319 5.28693 12.5898 7.34934 14.6522C9.41175 16.7146 12.2083 17.8742 15.125 17.8765C15.9612 17.8771 16.7689 17.5728 17.3969 17.0207C18.0249 16.4687 18.4301 15.7066 18.5367 14.8773L14.5063 13.1585L12.3578 14.5937C12.1601 14.7244 11.932 14.8018 11.6956 14.8183C11.4592 14.8349 11.2226 14.7901 11.0086 14.6882C9.40753 13.9137 8.11244 12.6247 7.33047 11.0273C7.22737 10.814 7.1811 10.5778 7.19616 10.3414C7.21122 10.105 7.28708 9.87651 7.41641 9.67806L8.85156 7.49525L7.12422 3.46478Z" fill="white"/>
</g>
</svg>
